<?xml version="1.0" standalone="no"?>
<!DOCTYPE svg PUBLIC "-//W3C//DTD SVG 20010904//EN"
 "http://www.w3.org/TR/2001/REC-SVG-20010904/DTD/svg10.dtd">
<svg version="1.0" xmlns="http://www.w3.org/2000/svg"
 width="857.000000pt" height="857.000000pt" viewBox="0 0 857.000000 857.000000"
 preserveAspectRatio="xMidYMid meet">

<g transform="translate(0.000000,857.000000) scale(0.100000,-0.100000)"
fill="#000000" stroke="none">
<path d="M4065 6803 c-355 -42 -604 -112 -880 -248 -790 -388 -1311 -1144
-1396 -2025 -14 -152 -7 -442 16 -590 124 -818 630 -1514 1366 -1879 242 -121
473 -195 744 -238 159 -26 595 -26 748 0 558 94 1025 333 1407 719 397 401
650 932 710 1488 17 150 14 443 -5 585 -77 585 -327 1083 -746 1490 -401 390
-898 625 -1459 690 -111 13 -421 18 -505 8z m575 -311 c714 -122 1300 -552
1624 -1191 161 -318 236 -635 236 -996 0 -600 -225 -1142 -649 -1566 -192
-191 -358 -310 -601 -428 -326 -159 -656 -229 -1030 -218 -274 8 -495 52 -740
147 -659 257 -1167 832 -1340 1517 -49 193 -64 317 -64 538 -1 410 86 751 282
1098 352 621 981 1036 1693 1116 132 15 455 6 589 -17z"/>
<path d="M3271 5976 l37 -25 -5 -128 -6 -128 -44 -71 c-69 -113 -77 -177 -28
-226 12 -13 27 -33 34 -45 15 -29 98 -53 190 -56 50 -1 71 -6 71 -15 0 -23
-37 -87 -101 -173 -96 -129 -215 -321 -279 -454 -196 -401 -197 -703 -5 -1009
82 -131 144 -205 423 -505 90 -97 201 -221 245 -275 169 -206 242 -268 357
-305 47 -15 230 -40 230 -31 0 4 -24 60 -53 126 -134 297 -172 427 -165 564 3
58 11 100 26 132 63 141 292 262 434 230 166 -38 285 -214 374 -552 9 -36 20
-68 23 -72 9 -10 126 161 178 257 47 89 83 211 83 284 l0 46 43 -77 c23 -43
45 -78 48 -78 10 0 34 321 33 440 -3 194 -48 326 -151 440 -30 33 -52 60 -49
60 4 0 37 -15 75 -34 37 -19 111 -53 164 -75 93 -38 97 -39 92 -18 -2 12 -12
65 -21 117 -71 406 -308 653 -672 701 -307 41 -646 -117 -799 -373 -52 -87
-52 -88 0 -88 l45 0 -69 -161 c-37 -89 -70 -163 -72 -165 -2 -2 -24 9 -50 26
-62 39 -96 93 -110 175 -12 73 -9 80 46 92 24 5 27 10 27 43 0 20 11 131 25
246 14 115 28 275 32 357 l6 147 46 0 c60 0 170 24 213 46 70 35 134 93 231
209 l100 120 -84 28 c-76 25 -94 27 -194 23 -127 -5 -143 1 -201 67 -45 51
-152 129 -216 156 -37 16 -80 20 -318 26 l-275 7 36 -26z m1399 -1986 c0 -5
-5 -10 -11 -10 -5 0 -7 5 -4 10 3 6 8 10 11 10 2 0 4 -4 4 -10z"/>
</g>
</svg>
