<?xml version="1.0" encoding="UTF-8"?>
<!DOCTYPE svg PUBLIC "-//W3C//DTD SVG 1.1//EN" "http://www.w3.org/Graphics/SVG/1.1/DTD/svg11.dtd">
<!-- Creator: CorelDRAW -->
<svg xmlns="http://www.w3.org/2000/svg" xml:space="preserve" width="210mm" height="297mm" version="1.1" style="shape-rendering:geometricPrecision; text-rendering:geometricPrecision; image-rendering:optimizeQuality; fill-rule:evenodd; clip-rule:evenodd"
viewBox="0 0 21000 29700"
 xmlns:xlink="http://www.w3.org/1999/xlink"
 xmlns:xodm="http://www.corel.com/coreldraw/odm/2003">
 <defs>
  <style type="text/css">
   <![CDATA[
    .str0 {stroke:#373435;stroke-width:20;stroke-miterlimit:22.9256}
    .fil2 {fill:#6E8089}
    .fil3 {fill:#646F75}
    .fil1 {fill:#363435}
    .fil0 {fill:#373435;fill-rule:nonzero}
   ]]>
  </style>
 </defs>
 <g id="Capa_x0020_1">
  <metadata id="CorelCorpID_0Corel-Layer"/>
  <path class="fil0" d="M10769.95 4917.59l0 35.88 0 205.63 0 35.91 0 78.91 0 35.88 0 205.64 0 35.84 377.05 0 0 -35.84 0 -205.64 0 -35.88 0 -78.91 0 -35.91 0 -205.63 0 -35.88c-185.56,-57.15 -377.05,0 -377.05,0z"/>
  <path class="fil0" d="M10221.39 5123.93l0 124.74 0 59.34 0 124.7 220.45 0 0 -124.7 0 -59.34 0 -124.74c-108.48,-29.53 -220.45,0 -220.45,0z"/>
  <path class="fil0" d="M11474.44 5123.93l0 124.74 0 59.34 0 124.7 220.45 0 0 -124.7 0 -59.34 0 -124.74c-108.48,-29.53 -220.45,0 -220.45,0z"/>
  <path class="fil0" d="M11358.6 4383.28l-783.69 0 0 -54.47 783.69 0 0 54.47zm-47.8 236.58l-54.75 0 0 -182.11 54.75 0 0 182.11zm0 108.93l-54.75 0 0 -54.46 54.75 0 0 54.46zm-109.18 -108.93l0 0 0 0.17 -63.19 0 -112.22 -60.71c-2.89,-5.93 -7.16,-13.86 -12.87,-21.73 -15.84,-21.84 -34.75,-33.37 -54.86,-33.37 -20.07,0 -39.05,11.53 -54.82,33.37 -5.75,7.87 -10.05,15.8 -12.91,21.73l-112.26 60.71 -62.86 0 0 -182.28 485.99 0 0 182.11zm-540.46 0l-54.75 0 0 -182.11 54.75 0 0 182.11zm0 108.93l-54.75 0 0 -54.46 54.75 0 0 54.46zm-492.94 0l0 -58.56 0 -232.48 383.72 0 0 182.11 -58.77 0 0 50.37 0 4.1 58.77 0 0 54.46 -383.72 0zm1197.08 -54.46l58.78 0 0 -4.1 0 -50.37 -58.78 0 0 -182.11 371.51 0 0 232.48 0 58.56 -371.51 0 0 -54.46zm653.66 163.4l-653.66 0 0 -54.47 651.57 0c-1.9,-37.99 -4.93,-75.7 -9.1,-113.03 -2.4,-21.45 -5.18,-42.72 -8.29,-63.92l-181.46 0 -26.42 0 -0.32 0 0 -168.56 0 -54.47 -54.47 0 -323.74 0 0 -54.5 52.95 0 0 -54.5 -998.57 0 0 54.5 52.99 0 0 54.5 -352.22 0 -54.47 0 0 54.47 0 168.84 -207.96 0c-3.1,21.1 -5.89,42.3 -8.25,63.64 -4.17,37.33 -7.2,75.04 -9.14,113.03l663.54 0 0 54.47 -43.22 0 -622.4 0c-0.28,14.64 -0.5,29.35 -0.5,44.06 0,3.5 0.08,6.95 0.08,10.41l622.82 0 43.22 0 0 540.55 54.47 0 0 -649.49 54.75 0 0 649.49 54.47 0 0 -758.42 33.41 0 38.03 0 7.55 -4.1 119.06 -64.48 7.34 -3.81 3.45 -9.25c0.14,-0.31 13.8,-34.18 34.01,-34.18 20.22,0 33.87,33.87 33.97,34.18l3.53 9.25 7.27 3.81 119.1 64.48 7.51 4.1 38.07 0 33.69 0 0 54.46 0 54.47 0 649.49 54.46 0 0 -649.49 54.72 0 0 649.49 54.5 0 0 -540.55 654.11 0c0,-3.46 0.08,-6.91 0.08,-10.41 0,-14.71 -0.22,-29.42 -0.53,-44.06z"/>
  <path class="fil0" d="M11020.31 4756c0,-45.12 -27.7,-81.7 -61.85,-81.7 -34.15,0 -61.8,36.58 -61.8,81.7 0,45.12 27.65,81.7 61.8,81.7 34.15,0 61.85,-36.58 61.85,-81.7z"/>
  <path class="fil0" d="M12252.67 5446.32l-111.16 -46.04c-11.04,-4.62 -23.46,1.59 -26.7,13.02 -39.48,140.72 -93.91,272.2 -160.76,391.37 -4.37,7.76 -3.07,17.43 3.21,23.71l87.49 87.49c9.17,9.17 24.62,7.3 31.18,-3.88 79.84,-135.89 143.05,-284.55 188.32,-441.75 2.78,-9.74 -2.23,-20.04 -11.58,-23.92z"/>
  <path class="fil0" d="M12187.61 4924.41c-3.38,133.06 -19.51,262 -46.74,385.01 -2.08,9.39 2.82,18.91 11.71,22.58l111.94 46.39c11.32,4.66 24.27,-1.9 27.02,-13.83 32.77,-141.42 51.44,-288.74 55.03,-439.19 0.25,-11.15 -8.82,-20.36 -19.96,-20.36l-119.21 0c-10.79,0 -19.51,8.64 -19.79,19.4z"/>
  <path class="fil0" d="M12140.88 4433.4c27.23,122.95 43.36,251.89 46.74,384.92 0.28,10.76 9,19.4 19.79,19.4l119.21 0c11.14,0 20.21,-9.21 19.93,-20.35 -3.6,-150.43 -22.23,-297.71 -54.96,-439.14 -2.79,-11.93 -15.74,-18.49 -27.06,-13.8l-111.94 46.36c-8.89,3.7 -13.79,13.19 -11.71,22.61z"/>
  <path class="fil0" d="M11897.55 5897.9c-90.88,139.07 -199.78,257.92 -322.05,350.41 -7.24,5.47 -9.88,15 -6.42,23.39l47.02 113.53c4.9,11.78 19.51,16.12 29.88,8.71 112.08,-80.64 214.49,-180.41 305.67,-298.1 22.62,-29.21 44.28,-59.23 65.09,-90.06 5.33,-7.87 4.23,-18.49 -2.47,-25.19l-86 -86.04c-8.96,-8.96 -23.81,-7.27 -30.72,3.35z"/>
  <path class="fil0" d="M9652.62 5446.32l111.16 -46.04c11.04,-4.62 23.46,1.59 26.7,13.02 39.48,140.72 93.91,272.2 160.76,391.37 4.38,7.76 3.07,17.43 -3.21,23.71l-87.49 87.49c-9.17,9.17 -24.62,7.3 -31.18,-3.88 -79.83,-135.89 -143.05,-284.55 -188.31,-441.75 -2.79,-9.74 2.22,-20.04 11.57,-23.92z"/>
  <path class="fil0" d="M9717.66 4924.41c3.39,133.06 19.51,262 46.75,385.01 2.08,9.39 -2.83,18.91 -11.72,22.58l-111.93 46.39c-11.33,4.66 -24.27,-1.9 -27.03,-13.83 -32.77,-141.42 -51.4,-288.74 -55.03,-439.19 -0.25,-11.15 8.82,-20.36 19.97,-20.36l119.2 0c10.8,0 19.51,8.64 19.79,19.4z"/>
  <path class="fil0" d="M9764.4 4433.4c-27.24,122.95 -43.36,251.89 -46.75,384.92 -0.28,10.76 -8.99,19.4 -19.75,19.4l-119.24 0c-11.15,0 -20.22,-9.21 -19.93,-20.35 3.59,-150.43 22.22,-297.71 54.99,-439.14 2.76,-11.93 15.7,-18.49 27.03,-13.8l111.93 46.36c8.89,3.7 13.8,13.19 11.72,22.61z"/>
  <path class="fil0" d="M10007.76 5897.9c90.87,139.07 199.77,257.92 322.05,350.41 7.23,5.47 9.87,15 6.42,23.39l-47.03 113.53c-4.9,11.78 -19.51,16.12 -29.88,8.71 -112.08,-80.64 -214.49,-180.41 -305.68,-298.1 -22.61,-29.21 -44.27,-59.23 -65.09,-90.06 -5.33,-7.87 -4.23,-18.49 2.47,-25.19l86.01 -86.04c8.96,-8.96 23.81,-7.27 30.73,3.35z"/>
  <path class="fil0" d="M9652.6 4296.48l111.16 46.03c11.04,4.59 23.46,-1.58 26.71,-13.05 39.47,-140.69 93.9,-272.17 160.76,-391.34 4.37,-7.76 3.07,-17.42 -3.21,-23.7l-87.49 -87.49c-9.18,-9.17 -24.63,-7.3 -31.19,3.88 -79.83,135.89 -143.05,284.55 -188.31,441.75 -2.79,9.73 2.22,20.04 11.57,23.92z"/>
  <path class="fil0" d="M10007.74 3844.91c90.87,-139.1 199.78,-257.92 322.05,-350.41 7.23,-5.47 9.88,-15.03 6.42,-23.39l-47.03 -113.56c-4.9,-11.79 -19.5,-16.12 -29.88,-8.68 -112.07,80.61 -214.49,180.37 -305.68,298.06 -22.61,29.21 -44.27,59.27 -65.09,90.1 -5.32,7.87 -4.23,18.45 2.47,25.19l86.01 86.01c8.96,8.96 23.81,7.26 30.73,-3.32z"/>
  <path class="fil0" d="M12252.64 4296.48l-111.16 46.03c-11.04,4.59 -23.46,-1.58 -26.71,-13.05 -39.47,-140.69 -93.91,-272.17 -160.76,-391.34 -4.36,-7.76 -3.07,-17.42 3.21,-23.7l87.49 -87.49c9.17,-9.17 24.63,-7.3 31.19,3.88 79.83,135.89 143.05,284.55 188.31,441.75 2.79,9.73 -2.22,20.04 -11.57,23.92z"/>
  <path class="fil0" d="M11897.53 3844.91c-90.88,-139.1 -199.78,-257.92 -322.05,-350.41 -7.23,-5.47 -9.88,-15.03 -6.42,-23.39l47.02 -113.56c4.91,-11.79 19.51,-16.12 29.88,-8.68 112.08,80.61 214.49,180.37 305.68,298.06 22.61,29.21 44.27,59.27 65.08,90.1 5.33,7.87 4.24,18.45 -2.47,25.19l-85.99 86.01c-8.96,8.96 -23.82,7.26 -30.73,-3.32z"/>
  <path class="fil0" d="M10952.64 6737.34c-77.89,-28.83 -154.83,-60.05 -230.68,-93.77l-0.03 0c75.88,33.72 152.78,64.94 230.71,93.77z"/>
  <path class="fil0" d="M11278.69 6599.7c92.53,-44.17 183.37,-92 272.38,-143.54 7.93,-4.59 11.39,-14.22 8.36,-23.32l-0.43 -1.34 -46.53 -118.92c-1.48,-3.14 -4.44,-5.68 -8.15,-6.81 -3.7,-1.13 -7.79,-0.71 -11.22,1.27 -141.71,81.63 -290.72,154.51 -444.14,217.94 75.88,27.27 152.54,52.29 229.73,74.72z"/>
  <path class="fil1" d="M10980.91 3160.05c119.98,15.01 197.05,64.39 258.56,127.51 52.8,54.19 122.39,145.77 120.53,255.46 -199.39,-27.01 -361.35,-180.35 -379.09,-382.97zm-39.15 -54.59l30.7 0c116.06,4.24 229.73,56.45 320.08,154.38 31.15,33.76 72.95,98.36 91.73,145.35 22.71,56.82 37.26,124.05 37.26,199.8 -33.39,-0.74 -37.25,-8.47 -101.6,-8.47 0,59.62 -21.76,134.15 -39.76,180.37 -24.08,61.8 -43.63,86.77 -78.59,133.08 -30.34,40.19 -70.8,70.38 -118.55,93.11 -33.76,16.07 -42.85,12.94 -70.16,39.91 -21.21,20.95 -37.32,32.09 -50.98,36.13l-23.15 0c-17.6,-5.58 -33.48,-23.5 -56.8,-44.61 -45.5,-41.18 -70.43,-5.79 -182.2,-131.06 -88.96,-99.7 -91.09,-198.25 -116.41,-306.93 -79.3,0 -128.23,53.55 -81.08,-131.88 22.41,-88.14 68.92,-159.19 128.43,-218.7l8.68 -8.25c90.83,-84.89 196.85,-128.39 302.4,-132.23zm-371.83 432.39l-28.96 9.59c1.12,-32.05 -4.07,-15.16 9.57,-34.7 12.67,-168.8 185.08,-328.07 352.16,-348.32l28.76 -7.07 -9.57 25.08c-18.23,172.21 -180.95,337.43 -351.96,355.42z"/>
  <path class="fil2" d="M11228.37 1947.51l-22.15 0.84 2.76 -25.95c-13.64,19.54 -8.45,2.65 -9.57,34.7l28.96 -9.59z"/>
  <polygon class="fil3" points="11580.33,1592.09 11589.9,1567.01 11561.14,1574.08 11581.38,1573.17 "/>
  <path class="fil0" d="M11554.17 6758.04c2.86,-9.42 -2.96,-19.23 -12.63,-21.24 -392.78,-81.88 -782.67,-230.11 -1129.38,-429.79 -3.38,-1.94 -7.48,-2.4 -11.22,-1.2 -3.67,1.1 -6.63,3.64 -8.29,7.09l-46.25 118.19 -0.56 1.72c-3,9.14 0.46,18.74 8.4,23.32 354.82,205.5 739.03,352.89 1142.36,438.65 8.57,1.8 17.11,-3.25 19.65,-11.61l37.92 -125.13z"/>
  <path class="fil0" d="M10409.28 6894.67c150.29,-31.96 297.89,-72.57 442.32,-121.46 -78.04,-30.73 -155.05,-63.92 -230.97,-99.52 -86.32,24.45 -173.21,45.76 -260.24,63.82 -8.86,1.87 -14.22,10.86 -11.61,19.54l37.64 124.11c2.97,9.77 12.92,15.66 22.86,13.51z"/>
  <path class="fil0" d="M12019.39 4892.18l2.5 0 0 -54.47 -2.96 0c0.32,14.64 0.57,29.36 0.57,44.07 0,3.49 -0.07,6.95 -0.11,10.4z"/>
  <path class="fil0" d="M10038.57 5614.72c6,13.22 12.1,26.35 18.45,39.33l1791.27 0c6.31,-12.98 12.45,-26.11 18.45,-39.33l-1828.17 0z"/>
  <path class="fil0" d="M10038.57 5614.72l1828.17 0c2.29,-5.08 4.59,-10.09 6.81,-15.17l-1841.78 0c2.22,5.08 4.51,10.09 6.8,15.17z"/>
  <path class="fil0" d="M10115.91 5762.99l1673.48 0c10.61,-17.92 20.92,-36.02 30.86,-54.5l-1735.24 0c9.95,18.48 20.25,36.58 30.9,54.5z"/>
  <path class="fil0" d="M10187.66 5871.93l1530 0c12.94,-17.82 25.47,-36.02 37.64,-54.47l-1605.28 0c12.13,18.45 24.69,36.65 37.64,54.47z"/>
  <path class="fil0" d="M10275.92 5980.86l1353.47 0c15.84,-17.5 31.4,-35.67 46.57,-54.47l-1446.6 0c15.17,18.8 30.72,36.97 46.56,54.47z"/>
  <path class="fil0" d="M10388.51 6089.79l1128.29 0c20.42,-17.18 40.5,-35.34 60.15,-54.46l-1248.59 0c19.65,19.12 39.72,37.28 60.15,54.46z"/>
  <path class="fil0" d="M10545.43 6198.76l814.46 0c29.39,-16.4 58.21,-34.53 86.46,-54.47l-987.38 0c28.22,19.94 57.07,38.07 86.46,54.47z"/>
  <path class="fil0" d="M10952.64 6307.69c99.49,0 197.21,-18.62 290.94,-54.46l-581.87 0c93.73,35.84 191.45,54.46 290.93,54.46z"/>
  <path class="fil0" d="M13119.74 4563.61l141.92 0 0 110.53c-15.35,12.13 -34.43,22.68 -56.76,31.36 -22.97,8.89 -47.84,13.41 -73.88,13.41 -27.72,0 -52.98,-4.8 -75.03,-14.33 -22.05,-9.52 -41.1,-22.89 -56.62,-39.79 -15.56,-16.86 -27.73,-37.18 -36.2,-60.4 -8.46,-23.24 -12.73,-48.96 -12.73,-76.41 0,-25.64 4.37,-50.2 13.05,-72.99 8.68,-22.79 20.74,-42.93 35.91,-59.83 15.1,-16.9 33.52,-30.48 54.68,-40.46 21.14,-9.91 44.56,-14.96 69.64,-14.96 16.09,0 30.94,1.31 44.21,3.92 13.22,2.61 25.5,6.24 36.54,10.76 11.04,4.55 21.45,10.02 30.98,16.29 9.56,6.32 18.84,13.48 27.51,21.31l3.04 2.72 39.23 -46.11 -3.04 -2.57c-11.67,-9.85 -23.81,-18.81 -36.09,-26.64 -12.41,-7.87 -25.89,-14.6 -40.04,-20 -14.18,-5.4 -29.67,-9.53 -46.07,-12.21 -16.37,-2.68 -34.61,-4.05 -54.29,-4.05 -35.49,0 -68.19,6.73 -97.26,20 -29,13.3 -54.23,31.39 -74.9,53.9 -20.67,22.47 -36.97,48.9 -48.43,78.57 -11.43,29.66 -17.26,61.06 -17.26,93.38 0,33.65 5.58,65.72 16.59,95.32 11,29.7 27.23,55.91 48.15,77.96 20.95,22.08 46.5,39.65 75.95,52.25 29.46,12.59 63.26,18.98 100.51,18.98 39.86,0 76.38,-7.17 108.55,-21.28 31.96,-14.07 59.34,-31.18 81.31,-50.87l1.34 -1.16 0 -191.17 -200.51 0 0 54.57z"/>
  <path class="fil0" d="M13813.3 4602.51c-8.89,22.75 -21.27,42.82 -36.86,59.72 -15.56,16.83 -34.51,30.31 -56.34,40.04 -21.81,9.74 -46.04,14.64 -72.01,14.64 -25.96,0 -50.2,-5.04 -71.96,-14.95 -21.87,-9.95 -41.07,-23.57 -57.08,-40.43 -16.02,-16.9 -28.65,-37.08 -37.5,-60.01 -8.89,-22.93 -13.37,-47.8 -13.37,-73.87 0,-26.04 4.48,-50.77 13.37,-73.52 8.85,-22.72 21.27,-42.83 36.86,-59.69 15.56,-16.86 34.51,-30.34 56.34,-40.08 21.8,-9.7 46.04,-14.64 72,-14.64 25.97,0 50.17,5.05 72.01,14.96 21.83,9.98 41.06,23.6 57.08,40.46 15.98,16.87 28.57,37.05 37.46,60.01 8.89,23 13.41,47.84 13.41,73.84 0,26 -4.52,50.76 -13.41,73.52zm9.56 -246.49c-21.13,-22.26 -46.74,-40.14 -76.2,-53.2 -29.49,-13.05 -62.65,-19.65 -98.57,-19.65 -35.91,0 -69.21,6.71 -98.88,20.01 -29.67,13.22 -55.46,31.36 -76.59,53.86 -21.13,22.44 -37.74,48.79 -49.42,78.22 -11.71,29.42 -17.64,60.96 -17.64,93.73 0,32.74 5.82,64.27 17.29,93.73 11.46,29.46 28.01,55.67 49.1,77.93 21.17,22.26 46.82,40.15 76.27,53.2 29.46,13.02 62.62,19.65 98.53,19.65 35.92,0 69.22,-6.74 98.92,-20 29.64,-13.23 55.39,-31.37 76.56,-53.87 21.13,-22.48 37.74,-48.76 49.42,-78.21 11.68,-29.43 17.6,-60.96 17.6,-93.77 0,-32.78 -5.78,-64.31 -17.25,-93.7 -11.46,-29.46 -28.01,-55.67 -49.14,-77.93z"/>
  <path class="fil0" d="M14283.37 4689.62c-19.58,14.14 -46.99,21.31 -81.42,21.31l-152.23 0 0 -157.31 142.91 0c39.8,0 70.1,6.88 90.17,20.39 19.86,13.41 29.49,31.93 29.49,56.59 0,25.65 -9.45,44.94 -28.92,59.02zm-233.65 -343.89l137.55 0c32.17,0 57.08,6.7 73.98,19.9 16.86,13.16 25.04,30.55 25.04,53.09 0,26.53 -9.2,46.04 -28.22,59.66 -19.15,13.72 -44.31,20.67 -74.75,20.67l-133.6 0 0 -153.32zm292.74 210.47c-9.11,-9.14 -20.08,-17.11 -32.56,-23.71 -9.49,-5.01 -19.51,-9.31 -29.92,-12.88 6.28,-3.21 12.42,-6.87 18.34,-11 8.93,-6.18 17.15,-13.97 24.45,-23.11 7.34,-9.21 13.23,-19.9 17.57,-31.75 4.34,-11.92 6.56,-26.07 6.56,-42.01 0,-18.31 -3.74,-35.14 -11.08,-50.06 -7.33,-14.96 -18.02,-27.77 -31.75,-38.07 -13.61,-10.23 -30.12,-18.27 -49.14,-23.95 -18.91,-5.65 -40.32,-8.5 -63.64,-8.5l-202.14 0 0 474.34 210.82 0c25.51,0 49.14,-2.96 70.24,-8.78 21.2,-5.89 39.65,-14.5 54.82,-25.61 15.27,-11.22 27.23,-25.26 35.45,-41.74 8.22,-16.47 12.39,-35.24 12.39,-55.74 0,-16.47 -2.79,-31.36 -8.29,-44.2 -5.51,-12.84 -12.95,-24.02 -22.12,-33.23z"/>
  <polygon class="fil0" points="14474.57,4765.5 14535.14,4765.5 14535.14,4291.15 14474.57,4291.15 "/>
  <polygon class="fil0" points="14722.48,4554.29 14977.01,4554.29 14977.01,4498.38 14722.48,4498.38 14722.48,4347.07 15006.99,4347.07 15006.99,4291.16 14661.91,4291.16 14661.91,4765.5 15010.35,4765.5 15010.35,4709.62 14722.48,4709.62 "/>
  <path class="fil0" d="M15297.57 4529.7l-139.66 0 0 -181.97 140.33 0c36.76,0 65.62,7.94 85.73,23.57 20.1,15.63 29.88,37.04 29.88,65.41 0,14.46 -2.9,27.58 -8.61,39.01 -5.72,11.43 -13.76,21.2 -23.92,29.07 -10.27,7.9 -22.68,14.11 -36.83,18.38 -14.25,4.34 -30.02,6.53 -46.92,6.53zm98.64 29c15.87,-7.73 29.81,-17.54 41.38,-29.11 11.64,-11.64 20.78,-25.5 27.2,-41.31 6.38,-15.73 9.63,-33.83 9.63,-53.83 0,-21.35 -4.16,-41.1 -12.38,-58.67 -8.22,-17.57 -20.01,-32.84 -35.04,-45.37 -14.95,-12.49 -33.23,-22.26 -54.29,-29.07 -20.95,-6.77 -44.8,-10.19 -70.84,-10.19l-204.54 0 0 474.38 60.58 0 0 -181.26 127.31 0 135.26 181.26 74.58 0 -144.18 -191.7c16.12,-3.25 31.36,-8.33 45.33,-15.13z"/>
  <polygon class="fil0" points="15920.35,4657.46 15632.42,4291.17 15577.21,4291.17 15577.21,4765.52 15636.48,4765.52 15636.48,4390.55 15931.71,4765.52 15979.61,4765.52 15979.61,4291.17 15920.35,4291.17 "/>
  <path class="fil0" d="M16488.58 4602.51c-8.89,22.75 -21.27,42.82 -36.86,59.72 -15.56,16.83 -34.51,30.31 -56.34,40.04 -21.8,9.74 -46.04,14.64 -72.01,14.64 -25.96,0 -50.2,-5.04 -71.96,-14.95 -21.87,-9.95 -41.07,-23.57 -57.08,-40.43 -16.02,-16.9 -28.65,-37.08 -37.5,-60.01 -8.89,-22.93 -13.37,-47.8 -13.37,-73.87 0,-26.04 4.48,-50.77 13.37,-73.52 8.85,-22.72 21.27,-42.83 36.86,-59.69 15.56,-16.86 34.51,-30.34 56.34,-40.08 21.8,-9.7 46.04,-14.64 72,-14.64 25.97,0 50.17,5.05 72.01,14.96 21.83,9.98 41.06,23.6 57.08,40.46 15.98,16.87 28.57,37.05 37.46,60.01 8.89,23 13.41,47.84 13.41,73.84 0,26 -4.52,50.76 -13.41,73.52zm9.56 -246.49c-21.13,-22.26 -46.74,-40.14 -76.2,-53.2 -29.49,-13.05 -62.65,-19.65 -98.57,-19.65 -35.91,0 -69.17,6.71 -98.88,20.01 -29.67,13.22 -55.46,31.36 -76.59,53.86 -21.13,22.44 -37.74,48.79 -49.42,78.22 -11.71,29.42 -17.64,60.96 -17.64,93.73 0,32.74 5.82,64.27 17.29,93.73 11.46,29.46 28.01,55.67 49.1,77.93 21.17,22.26 46.82,40.15 76.27,53.2 29.46,13.02 62.62,19.65 98.53,19.65 35.92,0 69.22,-6.74 98.92,-20 29.64,-13.23 55.39,-31.37 76.56,-53.87 21.13,-22.48 37.74,-48.76 49.42,-78.21 11.68,-29.43 17.6,-60.96 17.6,-93.77 0,-32.78 -5.78,-64.31 -17.25,-93.7 -11.46,-29.46 -28.01,-55.67 -49.14,-77.93z"/>
  <path class="fil0" d="M17209.55 4600.12c-8.85,21.62 -21.59,40.78 -37.78,57 -16.19,16.2 -36.23,29 -59.58,38.07 -23.43,9.14 -49.85,13.76 -78.53,13.76l-105.31 0 0 -361.21 105.31 0c28.68,0 55.07,4.73 78.49,14.04 23.39,9.31 43.43,22.26 59.62,38.42 16.19,16.19 28.89,35.59 37.78,57.64 8.86,22.12 13.37,46.04 13.37,71.16 0,25.54 -4.51,49.49 -13.37,71.12zm5.75 -241.23c-22.26,-21.17 -49.17,-37.89 -79.94,-49.82 -30.76,-11.89 -64.98,-17.92 -101.7,-17.92l-165.88 0 0 474.35 165.88 0c36.72,0 70.98,-6.14 101.74,-18.28 30.76,-12.1 57.64,-28.99 79.9,-50.09 22.26,-21.17 39.76,-46.64 51.9,-75.67 12.13,-29 18.31,-60.54 18.31,-93.81 0,-33.23 -6.18,-64.69 -18.31,-93.48 -12.17,-28.79 -29.64,-54.12 -51.9,-75.28z"/>
  <polygon class="fil0" points="17445.94,4709.62 17445.94,4554.29 17700.47,4554.29 17700.47,4498.37 17445.94,4498.37 17445.94,4347.07 17730.45,4347.07 17730.45,4291.15 17385.37,4291.15 17385.37,4765.53 17733.77,4765.53 17733.77,4709.62 "/>
  <polygon class="fil0" points="13230.36,5141.43 13230.36,5662.17 13086.63,5662.17 13086.63,5141.43 12887.84,5141.43 12887.84,5008.94 13429.15,5008.94 13429.15,5141.43 "/>
  <path class="fil0" d="M13803.69 5672.43c-175.47,0 -282.75,-98.01 -282.75,-290.23l0 -373.3 143.69 0 0 369.56c0,106.43 53.19,161.46 140.93,161.46 87.74,0 140.94,-53.2 140.94,-156.81l0 -374.21 143.68 0 0 368.67c0,197.81 -111.02,294.86 -286.49,294.86z"/>
  <path class="fil0" d="M14540.75 5673.35c-192.23,0 -335.03,-148.37 -335.03,-335.91l0 -1.91c0,-185.73 139.98,-337.84 340.64,-337.84 123.19,0 196.92,41.05 257.56,100.78l-91.44 105.48c-50.41,-45.76 -101.74,-73.73 -167.04,-73.73 -110.14,0 -189.48,91.44 -189.48,203.44l0 1.87c0,112.01 77.47,205.32 189.48,205.32 74.65,0 120.37,-29.88 171.7,-76.55l91.47 92.39c-67.2,71.86 -141.85,116.66 -267.86,116.66z"/>
  <path class="fil0" d="M15182.97 5672.43c-175.47,0 -282.75,-98.01 -282.75,-290.23l0 -373.3 143.68 0 0 369.56c0,106.43 53.2,161.46 140.94,161.46 87.73,0 140.93,-53.2 140.93,-156.81l0 -374.21 143.69 0 0 368.67c0,197.81 -111.02,294.86 -286.49,294.86z"/>
  <polygon class="fil0" points="16132.58,5662.16 16132.58,5235.68 15948.75,5514.7 15945.01,5514.7 15763.02,5238.47 15763.02,5662.16 15622.12,5662.16 15622.12,5008.89 15777.02,5008.89 15948.75,5285.14 16120.45,5008.89 16275.39,5008.89 16275.39,5662.16 "/>
  <path class="fil0" d="M16654.62 4957.58l105.44 -165.17 122.27 53.2 -119.48 111.97 -108.23 0zm57.85 219.31l-86.78 211.84 173.56 0 -86.78 -211.84zm197.84 485.28l-59.73 -146.54 -276.22 0 -59.73 146.54 -146.51 0 279.97 -657.92 132.5 0 280 657.92 -150.28 0z"/>
  <polygon class="fil0" points="17611.53,5662.16 17295.15,5246.9 17295.15,5662.16 17153.3,5662.16 17153.3,5008.89 17285.84,5008.89 17591.95,5411.12 17591.95,5008.89 17733.8,5008.89 17733.8,5662.16 "/>
  <polygon class="fil0 str0" points="9046.29,6348.77 9011.02,6348.77 9011.02,3653.87 9046.29,3653.87 "/>
  <polygon class="fil0" points="4300.68,4286.02 4353.8,4286.02 4523.2,4539.77 4692.57,4286.02 4745.7,4286.02 4745.7,4751.02 4693.24,4751.02 4693.24,4374.36 4523.84,4623.45 4521.19,4623.45 4351.82,4375.03 4351.82,4751.02 4300.68,4751.02 "/>
  <path class="fil0" d="M4856.53 4407.58l51.15 0 0 343.43 -51.15 0 0 -343.43zm-3.28 -131.51l58.42 0 0 56.48 -58.42 0 0 -56.48z"/>
  <path class="fil0" d="M5010.6 4407.58l51.16 0 0 59.8c23.25,-37.22 58.45,-67.1 117.58,-67.1 82.34,0 131.51,55.81 131.51,137.48l0 213.25 -51.11 0 0 -200.62c0,-63.75 -33.91,-103.61 -95.04,-103.61 -59.13,0 -102.94,43.18 -102.94,107.59l0 196.64 -51.16 0 0 -343.43z"/>
  <path class="fil0" d="M5408.45 4407.58l51.15 0 0 343.43 -51.15 0 0 -343.43zm-3.32 -131.51l58.42 0 0 56.48 -58.42 0 0 -56.48z"/>
  <path class="fil0" d="M5533.95 4707.17l25.89 -36.55c37.22,28.57 78.39,43.85 118.89,43.85 41.87,0 71.12,-20.57 71.12,-54.47l0 -1.34c0,-33.87 -40.54,-47.8 -85.73,-60.43 -53.09,-15.95 -113.56,-33.2 -113.56,-96.98l0 -1.34c0,-59.13 49.14,-98.32 116.91,-98.32 42.51,0 88.34,14.64 123.55,37.89l-23.25 38.52c-31.86,-20.6 -67.77,-33.19 -101.64,-33.19 -40.5,0 -66.43,21.23 -66.43,49.81l0 1.3c0,32.57 42.51,45.16 88.34,59.13 53.16,15.95 110.28,36.55 110.28,98.32l0 1.3c0,65.13 -53.8,102.98 -122.24,102.98 -49.81,0 -102.94,-19.26 -142.13,-50.48z"/>
  <path class="fil0" d="M5888.62 4660l0 -207.25 -47.8 0 0 -45.16 47.8 0 0 -103.64 51.12 0 0 103.64 108.97 0 0 45.16 -108.97 0 0 200.62c0,42.51 23.24,57.12 57.82,57.12 17.92,0 31.85,-3.32 49.81,-11.96l0 43.85c-17.96,9.95 -37.22,14.6 -61.77,14.6 -55.81,0 -96.98,-27.23 -96.98,-96.98z"/>
  <path class="fil0" d="M6364.84 4560.37c-5.29,-61.77 -40.5,-116.91 -109.61,-116.91 -60.43,0 -104.28,50.48 -111.62,116.91l221.23 0zm-273.02 19.9l0 -1.31c0,-98.95 69.08,-178.68 164.75,-178.68 101.64,0 160.09,81.04 160.09,181.37 0,7.3 0,10.61 -0.71,16.58l-272.34 0c7.34,74.4 59.8,116.24 120.9,116.24 47.87,0 79.73,-19.27 108.3,-48.48l31.89 28.54c-34.57,39.2 -75.74,64.46 -141.5,64.46 -93.66,0 -171.38,-72.43 -171.38,-178.72z"/>
  <path class="fil0" d="M6490.27 4407.58l51.15 0 0 89.68c25.26,-57.12 75.07,-97.65 140.16,-95.64l0 55.14 -3.95 0c-75.07,0 -136.21,53.76 -136.21,157.41l0 136.84 -51.15 0 0 -343.43z"/>
  <path class="fil0" d="M6747.95 4407.58l51.15 0 0 343.43 -51.15 0 0 -343.43zm-3.32 -131.51l58.46 0 0 56.48 -58.46 0 0 -56.48z"/>
  <path class="fil0" d="M7186.35 4580.96l0 -1.34c0,-73.73 -55.13,-134.16 -127.52,-134.16 -74.44,0 -125.59,60.43 -125.59,132.85l0 1.31c0,73.73 54.47,133.52 126.89,133.52 74.4,0 126.22,-60.43 126.22,-132.18zm-305.57 0l0 -1.34c0,-97.65 75.07,-179.36 179.35,-179.36 103.61,0 178.68,81.07 178.68,178.05l0 1.31c0,97.65 -76.41,179.35 -179.98,179.35 -102.98,0 -178.05,-81.03 -178.05,-178.01z"/>
  <path class="fil0" d="M7775.39 4579.63l0 -1.34c0,-79.02 -60.46,-132.19 -124.21,-132.19 -66.43,0 -120.9,49.15 -120.9,132.19l0 1.34c0,81.7 55.11,132.86 120.9,132.86 63.75,0 124.21,-53.8 124.21,-132.86zm-297.6 0.67l0 -1.34c0,-111.58 81.7,-178.68 164.08,-178.68 63.75,0 104.95,33.87 131.51,73.06l0 -207.26 51.19 0 0 484.93 -51.19 0 0 -69.11c-28.54,41.21 -67.76,76.41 -131.51,76.41 -82.38,0 -164.08,-65.08 -164.08,-178.01z"/>
  <path class="fil0" d="M8174.53 4560.37c-5.29,-61.77 -40.48,-116.91 -109.59,-116.91 -60.43,0 -104.28,50.48 -111.62,116.91l221.21 0zm-273 19.9l0 -1.31c0,-98.95 69.07,-178.68 164.75,-178.68 101.62,0 160.08,81.04 160.08,181.37 0,7.3 0,10.61 -0.71,16.58l-272.33 0c7.34,74.4 59.79,116.24 120.89,116.24 47.88,0 79.72,-19.27 108.3,-48.48l31.89 28.54c-34.57,39.2 -75.74,64.46 -141.49,64.46 -93.66,0 -171.38,-72.43 -171.38,-178.72z"/>
  <path class="fil0" d="M3889.84 5565.62l80.22 -96.14c56.44,45.87 113.77,74.97 184.29,74.97 56.44,0 89.04,-22.05 89.04,-58.21l0 -1.73c0,-34.39 -21.17,-52.91 -124.28,-78.49 -125.24,-30.87 -204.58,-66.99 -204.58,-188.7l0 -1.76c0,-111.98 89.04,-186.02 216.01,-186.02 90.8,0 165.77,28.22 229.26,78.45l-70.55 102.27c-55.53,-37.88 -107.56,-60.82 -160.48,-60.82 -52.91,0 -79.34,22.94 -79.34,53.8l0 1.73c0,41.45 26.43,52.92 133.14,81.14 125.2,33.51 195.75,77.58 195.75,185.17l0 1.73c0,122.59 -93.48,191.35 -226.62,191.35 -94.33,0 -187.82,-31.75 -261.86,-98.74z"/>
  <path class="fil0" d="M4771.69 5382.22c-7.94,-59.97 -43.22,-100.51 -99.63,-100.51 -56.44,0 -91.72,39.65 -102.3,100.51l201.93 0zm-333.31 39.69l0 -1.77c0,-134.94 96.1,-245.99 233.68,-245.99 157.8,0 230.12,122.55 230.12,256.58 0,10.54 -0.88,22.04 -1.77,35.27l-328.89 0c13.23,60.82 55.56,92.57 115.53,92.57 44.95,0 76.7,-14.11 114.62,-48.51l76.7 67.88c-44.95,55.56 -107.57,88.19 -193.11,88.19 -141.96,0 -246.88,-99.62 -246.88,-244.22z"/>
  <path class="fil0" d="M5323.76 5396.33l0 -1.77c0,-64.38 -49.39,-109.32 -115.5,-109.32 -65.26,0 -114.62,44.94 -114.62,109.32l0 1.77c0,66.14 48.48,109.32 114.62,109.32 66.11,0 115.5,-44.94 115.5,-109.32zm-340.36 352.7l45.86 -100.54c49.39,27.34 96.1,43.22 159.6,43.22 91.69,0 134.9,-44.1 134.9,-128.73l0 -22.93c-39.69,48.5 -82.9,76.73 -154.3,76.73 -110.25,0 -209.87,-79.38 -209.87,-220.45l0 -1.77c0,-141.07 101.42,-220.41 209.87,-220.41 73.16,0 116.38,30.83 152.54,70.52l0 -61.74 134.02 0 0 365.94c0,83.75 -20.29,146.36 -59.97,186.05 -44.98,44.95 -111.98,63.47 -203.66,63.47 -77.61,0 -149.02,-17.64 -208.99,-49.36z"/>
  <path class="fil0" d="M5551.38 5488.91l0 -305.96 134.02 0 0 263.63c0,63.5 29.11,96.1 81.14,96.1 52,0 83.75,-32.6 83.75,-96.1l0 -263.63 134.02 0 0 472.61 -134.02 0 0 -67.02c-30.83,39.68 -71.44,75.84 -138.43,75.84 -102.31,0 -160.48,-66.14 -160.48,-175.47z"/>
  <path class="fil0" d="M6083.13 5182.94l134.06 0 0 95.25c27.3,-64.38 70.52,-107.6 150.74,-104.07l0 140.19 -7.06 0c-89.04,0 -143.68,52.92 -143.68,166.65l0 174.59 -134.06 0 0 -472.61z"/>
  <path class="fil0" d="M6436.83 5182.92l134.02 0 0 472.62 -134.02 0 0 -472.62zm-3.53 -171.03l141.08 0 0 119.03 -141.08 0 0 -119.03z"/>
  <path class="fil0" d="M7018.82 5420.13l0 -1.76c0,-78.46 -52.04,-130.5 -114.62,-130.5 -62.58,0 -115.5,51.16 -115.5,130.5l0 1.76c0,78.49 52.92,130.49 115.5,130.49 62.58,0 114.62,-52 114.62,-130.49zm-364.14 0l0 -1.76c0,-157.84 103.19,-244.23 215.12,-244.23 71.44,0 115.54,32.63 147.25,70.52l0 -232.76 134.02 0 0 643.64 -134.02 0 0 -67.87c-32.63,44.94 -76.73,76.69 -147.25,76.69 -110.2,0 -215.12,-86.4 -215.12,-244.23z"/>
  <path class="fil0" d="M7529.48 5488.91l0 -23.81c-23.81,-10.58 -52.91,-17.64 -85.54,-17.64 -57.33,0 -92.57,22.93 -92.57,65.26l0 1.77c0,36.16 29.98,57.29 73.16,57.29 63.5,0 104.95,-33.51 104.95,-82.87zm-307.76 30.87l0 -1.76c0,-102.31 78.49,-150.78 190.5,-150.78 48.47,0 81.1,7.9 115.46,19.4l0 -7.97c0,-56.41 -34.36,-86.4 -101.38,-86.4 -52,0 -87.28,8.82 -130.5,25.58l-33.47 -102.31c51.99,-22.01 103.15,-37.88 183.37,-37.88 74.08,0 125.24,18.52 159.6,52.91 35.24,35.25 51.15,87.28 51.15,150.78l0 274.21 -129.61 0 0 -51.15c-32.63,36.16 -76.73,59.97 -142.84,59.97 -89.04,0 -162.28,-50.27 -162.28,-144.6z"/>
  <path class="fil0" d="M8093.9 5420.13l0 -1.76c0,-78.46 -52.04,-130.5 -114.62,-130.5 -62.58,0 -115.5,51.16 -115.5,130.5l0 1.76c0,78.49 52.92,130.49 115.5,130.49 62.58,0 114.62,-52 114.62,-130.49zm-364.14 0l0 -1.76c0,-157.84 103.19,-244.23 215.12,-244.23 71.44,0 115.54,32.63 147.25,70.52l0 -232.76 134.01 0 0 643.64 -134.01 0 0 -67.87c-32.63,44.94 -76.73,76.69 -147.25,76.69 -110.2,0 -215.12,-86.4 -215.12,-244.23z"/>
 </g>
</svg>
