<?xml version="1.0" standalone="no"?>
<!DOCTYPE svg PUBLIC "-//W3C//DTD SVG 20010904//EN"
 "http://www.w3.org/TR/2001/REC-SVG-20010904/DTD/svg10.dtd">
<svg version="1.0" xmlns="http://www.w3.org/2000/svg"
 width="199.000000pt" height="254.000000pt" viewBox="0 0 199.000000 254.000000"
 preserveAspectRatio="xMidYMid meet">

<g transform="translate(0.000000,254.000000) scale(0.100000,-0.100000)"
fill="#000000" stroke="none">
<path d="M1255 2475 c84 -66 166 -135 269 -225 283 -247 327 -279 409 -304 23
-7 17 -31 -30 -109 -120 -200 -138 -436 -72 -982 23 -187 19 -237 -23 -323
-48 -95 -179 -180 -398 -257 -153 -53 -303 -129 -362 -184 -43 -40 -48 -48
-36 -59 13 -10 24 -5 64 31 83 75 170 119 441 222 142 54 221 102 282 171 89
100 95 152 61 477 -52 498 -32 688 99 926 16 29 27 59 25 66 -3 6 -25 22 -49
34 -25 12 -67 39 -94 59 -45 35 -291 235 -315 257 -54 51 -233 188 -266 204
-24 12 -24 11 -5 -4z"/>
<path d="M860 2184 c-109 -23 -204 -78 -301 -174 -68 -67 -94 -101 -122 -160
-54 -115 -71 -200 -65 -328 9 -174 69 -304 198 -426 311 -293 816 -203 1006
179 49 100 64 164 64 285 0 161 -35 268 -127 391 -147 195 -404 287 -653 233z
m150 -29 c0 -9 7 -18 16 -22 8 -3 13 -12 10 -20 -8 -20 12 -53 28 -47 8 3 19
25 26 50 9 32 18 44 32 44 10 0 18 -6 17 -12 -1 -7 -1 -24 0 -38 l2 -25 24 28
c27 30 51 36 41 10 -4 -9 -10 -36 -13 -59 -4 -35 -8 -41 -25 -36 -12 3 -17 10
-13 20 4 12 2 12 -8 4 -17 -15 -27 -6 -27 25 0 13 -4 23 -10 23 -5 0 -10 -11
-10 -24 0 -23 -3 -24 -47 -21 -34 2 -47 7 -46 17 2 8 -6 14 -17 14 -14 0 -18
-5 -15 -17 4 -13 0 -15 -19 -12 -23 5 -24 7 -10 27 8 13 11 25 8 29 -4 3 1 13
10 22 9 9 14 21 11 26 -4 5 3 9 14 9 12 0 21 -7 21 -15z m-103 -42 c12 -54 4
-73 -33 -73 -27 0 -38 14 -29 38 6 16 8 15 21 -2 22 -30 29 -10 12 33 -15 38
-13 46 12 50 3 1 10 -20 17 -46z m-107 -49 c0 -8 10 -18 22 -23 l22 -8 -23
-13 c-14 -7 -26 -8 -30 -3 -7 12 -41 13 -41 2 0 -4 6 -10 13 -12 9 -4 8 -8 -3
-16 -24 -17 -30 -13 -31 22 -1 17 -2 43 -3 57 -1 14 3 28 8 31 12 10 66 -20
66 -37z m508 24 c18 -18 15 -63 -5 -80 -31 -26 -52 -29 -73 -8 -25 25 -25 41
1 74 22 27 57 34 77 14z m-622 -71 c11 -12 23 -27 27 -33 9 -15 -98 -125 -110
-113 -6 6 -15 4 -23 -6 -10 -12 -10 -15 4 -15 14 0 15 -4 6 -20 -14 -27 -27
-25 -34 5 -4 14 -11 25 -16 25 -6 0 -10 9 -10 19 0 11 -6 21 -12 24 -10 3 -10
7 1 20 10 13 17 14 27 6 7 -6 18 -8 24 -4 5 3 17 -1 26 -9 18 -18 40 -21 49
-6 7 11 -8 42 -18 41 -4 -1 -7 2 -8 7 0 4 -8 15 -16 25 -15 16 -15 19 2 37 24
26 55 25 81 -3z m720 2 c16 -17 16 -22 4 -29 -11 -7 -16 -4 -18 10 -2 11 -8
20 -14 20 -10 0 -8 -8 9 -62 3 -10 -3 -20 -15 -27 -17 -9 -26 -6 -51 15 -31
26 -33 44 -5 44 8 0 14 -9 14 -20 0 -11 7 -20 15 -20 18 0 19 14 3 39 -27 43
22 70 58 30z m-346 2 c0 -4 11 -6 25 -3 14 2 25 0 25 -6 0 -5 11 -13 25 -16
19 -5 25 -13 25 -34 0 -18 3 -23 9 -14 7 11 9 10 15 -3 7 -18 -22 -64 -41 -65
-9 0 -13 -16 -13 -44 0 -29 -5 -46 -14 -49 -8 -3 -18 -22 -21 -41 -5 -22 -12
-33 -20 -30 -6 3 -20 -7 -29 -21 -9 -14 -21 -23 -26 -20 -6 4 -10 -3 -10 -13
0 -11 -7 -22 -15 -26 -9 -3 -15 0 -15 10 0 8 -5 12 -10 9 -14 -8 -2 -46 19
-62 24 -19 69 -15 90 6 15 15 18 28 14 58 -5 35 -1 42 38 81 23 24 59 50 78
58 59 25 144 6 197 -44 21 -20 64 -38 64 -27 0 3 -4 15 -10 25 -12 23 14 56
52 65 28 7 68 -22 68 -49 0 -26 -52 -58 -82 -52 -16 3 -28 2 -28 -2 0 -5 -16
-15 -36 -22 -28 -11 -32 -16 -21 -25 43 -32 56 -122 27 -187 -11 -27 -25 -48
-30 -48 -6 0 -10 -8 -10 -17 0 -10 -7 -27 -15 -37 -8 -11 -15 -31 -15 -44 0
-21 -2 -22 -15 -12 -20 17 -41 0 -49 -40 -6 -31 -26 -42 -26 -15 0 13 -19 20
-44 16 -5 -1 -15 8 -23 19 -11 16 -18 19 -26 11 -6 -6 -15 -11 -19 -11 -13 0
-9 35 5 49 10 11 9 13 -3 9 -8 -3 -23 1 -32 9 -15 13 -18 12 -29 -9 -13 -23
-14 -23 -21 12 -5 26 -6 19 -4 -27 1 -35 -1 -63 -5 -63 -3 0 -6 -21 -5 -46 2
-31 8 -49 19 -56 27 -15 20 -25 -23 -32 -22 -3 -40 -11 -40 -16 0 -6 -7 -10
-16 -10 -10 0 -14 6 -10 15 3 8 -3 19 -12 25 -14 8 -15 11 -3 19 8 5 20 7 28
4 9 -4 13 4 13 25 0 42 -9 62 -26 55 -10 -4 -14 3 -14 21 0 15 -8 38 -17 52
l-16 26 -13 -24 c-7 -12 -13 -29 -14 -36 0 -7 -7 -20 -15 -28 -8 -9 -15 -25
-15 -37 0 -12 -5 -29 -10 -37 -6 -10 -4 -20 7 -32 14 -16 14 -18 -1 -24 -9 -3
-22 -4 -30 -1 -8 3 -26 -6 -40 -20 -26 -25 -27 -26 -40 -7 -8 10 -17 16 -21
12 -9 -9 27 -58 40 -54 6 1 15 11 20 22 9 17 15 18 43 10 17 -5 32 -13 32 -18
0 -5 8 -4 18 1 11 6 24 6 33 0 7 -5 26 -9 42 -9 25 0 27 -3 27 -45 0 -35 4
-45 16 -45 13 0 15 9 12 50 l-3 50 43 6 c51 8 76 -8 68 -42 -5 -17 0 -26 15
-34 16 -9 18 -14 8 -26 -16 -20 -24 -18 -37 11 -6 14 -16 25 -22 25 -7 0 -8
-6 0 -19 14 -27 13 -31 -9 -31 -16 0 -21 11 -29 53 l-10 52 -1 -52 c-1 -48 -3
-53 -27 -59 -28 -7 -44 7 -44 39 0 9 -4 17 -10 17 -5 0 -10 -13 -10 -30 0 -31
-11 -36 -56 -24 -25 7 -46 46 -38 69 6 16 -12 45 -27 45 -5 0 -9 -7 -9 -16 0
-8 5 -12 10 -9 6 3 10 -1 10 -10 0 -12 -6 -15 -21 -10 -17 6 -20 3 -17 -12 2
-10 11 -17 20 -15 9 1 18 -4 22 -13 7 -18 -7 -19 -51 -3 -31 11 -45 28 -23 28
6 0 10 7 10 17 0 15 -1 15 -18 0 -24 -22 -45 -21 -73 3 -20 17 -22 21 -9 29
11 8 17 5 22 -9 8 -22 38 -28 38 -8 0 6 -10 22 -22 36 l-23 24 35 28 c19 16
45 30 58 30 14 0 22 6 23 18 0 9 2 25 4 35 2 9 0 17 -5 17 -4 0 -8 17 -7 38 1
71 -5 90 -30 90 -13 0 -32 7 -42 16 -15 13 -20 14 -24 4 -3 -9 -9 -8 -20 7
-13 16 -18 18 -28 8 -18 -18 -29 -16 -29 5 0 10 -13 31 -30 47 -16 16 -30 33
-30 39 0 5 -8 18 -17 29 -14 15 -18 37 -18 98 l0 78 43 41 c48 44 78 56 118
46 30 -8 57 -64 48 -101 -7 -28 7 -33 27 -9 7 9 30 22 50 31 25 10 39 22 41
36 2 13 16 28 33 36 36 16 75 50 75 65 0 6 -5 5 -12 -2 -14 -14 -58 -16 -58
-3 0 5 8 12 17 16 16 6 15 8 -7 26 -22 17 -23 20 -9 29 9 5 20 21 23 35 4 14
11 25 16 25 5 0 21 11 36 25 27 25 54 33 54 16z m460 -158 c0 -31 -26 -40 -51
-17 -20 18 -21 18 -34 1 -13 -18 -14 -18 -24 2 -9 16 -8 21 10 26 11 4 18 10
15 13 -4 3 8 11 26 17 38 13 58 -1 58 -42z m-1020 -73 c0 -5 13 -5 30 0 26 7
30 6 30 -11 0 -15 -7 -19 -31 -19 -19 0 -28 -4 -24 -11 4 -6 13 -8 21 -5 16 6
18 -12 5 -33 -6 -10 -10 -10 -16 -1 -4 6 -13 9 -20 6 -8 -3 -19 2 -25 10 -7 8
-19 14 -26 14 -19 0 -18 39 2 61 13 14 21 16 35 8 11 -5 19 -14 19 -19z m-65
-99 c-5 -17 0 -21 29 -26 19 -4 39 -4 45 0 6 3 11 -2 11 -13 0 -24 -10 -34
-24 -23 -6 5 -26 11 -44 13 -28 4 -33 2 -29 -13 3 -10 -2 -20 -10 -24 -13 -4
-15 1 -9 32 3 21 6 46 6 56 0 9 7 17 16 17 11 0 13 -6 9 -19z m1173 -19 c5
-32 -16 -55 -43 -48 -15 4 -28 -1 -40 -14 -14 -16 -20 -17 -27 -8 -12 20 -10
26 20 43 l27 16 -27 -4 c-35 -5 -47 20 -15 32 12 5 40 8 62 7 34 -1 41 -5 43
-24z m-1124 -158 c4 -9 9 -14 13 -11 7 8 33 -11 33 -24 0 -5 -8 -9 -17 -9 -15
0 -15 -2 -4 -9 13 -8 13 -12 1 -26 -13 -16 -15 -16 -27 1 -7 10 -13 12 -13 6
0 -15 -27 -16 -36 -1 -3 6 0 15 7 20 11 7 10 9 -3 9 -10 0 -18 7 -18 16 0 11
6 14 21 9 18 -6 20 -4 14 14 -8 26 19 30 29 5z m1051 -6 c-3 -13 -3 -18 2 -13
14 18 32 15 43 -5 9 -17 8 -20 -7 -20 -14 0 -15 -2 -4 -9 16 -10 6 -31 -14
-31 -7 0 -16 6 -18 13 -4 9 -8 9 -15 -2 -12 -17 -35 -4 -28 15 3 8 1 14 -4 14
-6 0 -10 10 -10 22 0 17 3 19 12 10 18 -18 27 -15 21 8 -4 14 0 20 12 20 12 0
15 -6 10 -22z m-885 -264 l36 -36 -28 -30 c-15 -17 -28 -36 -28 -44 0 -26 26
-14 52 22 17 23 28 32 33 24 7 -12 -51 -80 -69 -80 -5 0 -18 7 -27 16 -20 18
-14 40 24 82 17 18 18 22 5 22 -9 0 -18 10 -22 22 -4 16 -8 20 -16 12 -8 -8
-7 -19 2 -39 11 -24 10 -29 -6 -41 -22 -16 -50 -5 -67 28 -9 16 -8 22 2 29 10
6 15 2 17 -16 2 -14 10 -25 18 -25 12 0 13 8 8 36 -5 26 -3 39 7 45 20 12 19
13 59 -27z m803 8 c27 -24 20 -54 -24 -100 -35 -35 -43 -40 -53 -28 -9 13 -13
13 -23 1 -10 -11 -10 -16 2 -22 12 -7 11 -10 -5 -20 -16 -11 -19 -9 -25 17 -4
17 -10 30 -15 30 -4 0 -7 14 -6 32 2 32 19 48 30 29 4 -6 13 -8 21 -5 7 3 18
-4 25 -15 11 -21 40 -29 40 -12 0 5 -15 22 -34 39 -37 32 -35 47 9 70 21 11
29 9 58 -16z m-157 -126 c24 -38 15 -68 -31 -93 -47 -25 -65 -28 -65 -10 0 7
-8 29 -19 49 -10 21 -16 40 -13 43 15 15 31 0 42 -40 7 -25 17 -45 21 -45 14
0 11 18 -11 61 l-21 39 23 10 c38 15 57 11 74 -14z"/>
<path d="M1261 2064 c-21 -27 -28 -64 -12 -64 21 0 57 75 41 85 -4 3 -18 -7
-29 -21z"/>
<path d="M616 2011 c-7 -11 18 -33 27 -24 4 3 7 12 7 20 0 15 -26 18 -34 4z"/>
<path d="M653 1968 c2 -7 10 -13 17 -13 7 0 15 6 18 13 2 7 -5 12 -18 12 -13
0 -20 -5 -17 -12z"/>
<path d="M550 1890 c0 -5 5 -10 11 -10 5 0 7 5 4 10 -3 6 -8 10 -11 10 -2 0
-4 -4 -4 -10z"/>
<path d="M1504 1780 c-27 -11 -38 -27 -24 -35 16 -10 80 15 80 31 0 16 -24 17
-56 4z"/>
<path d="M1041 1244 c0 -11 3 -14 6 -6 3 7 2 16 -1 19 -3 4 -6 -2 -5 -13z"/>
<path d="M1105 1080 c-4 -6 -3 -16 3 -22 6 -6 12 -6 17 2 4 6 3 16 -3 22 -6 6
-12 6 -17 -2z"/>
<path d="M927 1066 c-6 -15 12 -26 44 -26 11 0 19 7 19 16 0 13 -3 14 -14 5
-10 -9 -15 -8 -20 4 -7 19 -22 19 -29 1z"/>
<path d="M920 1015 c0 -16 6 -25 15 -25 8 0 15 9 15 19 0 10 -7 21 -15 25 -11
4 -15 -1 -15 -19z"/>
<path d="M1483 1883 c-18 -7 -16 -23 2 -23 8 0 15 7 15 15 0 8 -1 15 -2 14 -2
0 -9 -3 -15 -6z"/>
<path d="M457 1783 c-12 -11 -8 -23 8 -23 8 0 15 7 15 15 0 16 -12 20 -23 8z"/>
<path d="M1555 1660 c3 -5 13 -10 21 -10 8 0 14 5 14 10 0 6 -9 10 -21 10 -11
0 -17 -4 -14 -10z"/>
<path d="M1386 1241 c-3 -4 6 -19 19 -31 19 -18 28 -21 37 -12 9 9 7 16 -7 32
-19 21 -40 26 -49 11z"/>
<path d="M1232 1123 c22 -46 33 -63 40 -63 12 0 10 44 -4 58 -13 13 -41 17
-36 5z"/>
<path d="M357 844 c-11 -11 -8 -82 3 -89 6 -3 10 3 10 14 0 13 8 21 23 23 34
5 31 52 -3 56 -14 2 -29 0 -33 -4z m41 -25 c-2 -6 -8 -10 -13 -10 -5 0 -11 4
-13 10 -2 6 4 11 13 11 9 0 15 -5 13 -11z"/>
<path d="M451 836 c-31 -37 9 -103 47 -80 36 23 23 94 -18 94 -10 0 -23 -6
-29 -14z m53 -21 c8 -22 -4 -45 -24 -45 -21 0 -29 16 -22 43 5 21 38 23 46 2z"/>
<path d="M620 799 c0 -29 2 -50 5 -48 10 10 14 88 5 94 -6 4 -10 -14 -10 -46z"/>
<path d="M668 839 c-35 -20 -17 -89 23 -89 21 0 44 26 30 34 -5 3 -11 1 -13
-6 -7 -21 -40 0 -36 24 2 18 9 23 31 21 24 -2 27 0 17 13 -14 16 -28 17 -52 3z"/>
<path d="M747 843 c-11 -10 -8 -81 3 -88 6 -4 10 13 10 44 0 52 -1 56 -13 44z"/>
<path d="M789 804 c-21 -51 -19 -66 6 -40 9 9 18 16 20 16 2 0 11 -7 20 -16 9
-9 18 -14 21 -12 5 6 -33 98 -41 98 -3 0 -15 -21 -26 -46z m35 1 c3 -9 0 -15
-9 -15 -9 0 -12 6 -9 15 4 8 7 15 9 15 2 0 5 -7 9 -15z"/>
<path d="M912 841 c-8 -5 -12 -23 -10 -47 2 -31 7 -40 24 -42 38 -5 67 42 46
74 -10 16 -45 25 -60 15z m46 -44 c3 -22 -1 -27 -17 -27 -17 0 -21 6 -21 31 0
24 4 30 18 27 10 -2 18 -14 20 -31z"/>
<path d="M1005 842 c-3 -3 -5 -25 -5 -49 0 -41 1 -43 30 -43 17 0 30 5 30 10
0 6 -11 10 -25 10 -14 0 -25 5 -25 10 0 6 11 10 25 10 14 0 25 5 25 10 0 6
-11 10 -25 10 -34 0 -32 18 3 22 l27 3 -27 6 c-15 3 -30 4 -33 1z"/>
<path d="M1140 840 c-19 -4 -27 -8 -18 -9 12 -1 18 -12 21 -43 l4 -43 1 43 c1
30 6 42 17 42 8 0 15 5 15 10 0 6 -1 9 -2 9 -2 -1 -19 -5 -38 -9z"/>
<path d="M1201 840 c-1 -8 -4 -22 -5 -30 -10 -49 42 -82 64 -41 13 25 13 68 0
76 -6 4 -10 -10 -10 -34 0 -34 -3 -41 -19 -41 -16 0 -21 8 -24 43 -2 23 -5 35
-6 27z"/>
<path d="M1300 830 c-24 -24 -24 -29 -4 -58 18 -25 36 -28 54 -8 10 13 7 15
-17 13 -24 -2 -28 2 -28 23 0 21 4 25 28 23 24 -2 27 0 17 13 -16 19 -26 18
-50 -6z"/>
<path d="M1380 806 c0 -36 4 -46 20 -51 12 -4 27 -1 35 5 17 14 21 80 5 80 -5
0 -10 -16 -10 -35 0 -24 -5 -35 -15 -35 -10 0 -15 10 -15 34 0 19 -4 38 -10
41 -6 4 -10 -11 -10 -39z"/>
<path d="M1729 838 c-1 -7 -1 -22 0 -33 1 -17 -1 -17 -22 8 -12 15 -26 27 -30
27 -4 0 -6 -21 -6 -47 2 -45 2 -46 8 -13 l6 35 20 -32 c11 -18 23 -33 27 -33
4 0 8 23 8 50 0 28 -2 50 -5 50 -3 0 -6 -6 -6 -12z"/>
<path d="M540 795 c0 -43 1 -45 30 -45 17 0 30 5 30 10 0 6 -9 10 -20 10 -16
0 -20 7 -20 35 0 19 -4 35 -10 35 -5 0 -10 -20 -10 -45z"/>
<path d="M1470 793 c0 -46 13 -50 23 -8 4 18 5 18 6 -2 2 -36 20 -36 30 -1 9
32 9 32 10 6 2 -44 21 -32 21 12 0 47 -23 55 -37 13 l-10 -28 -6 28 c-12 47
-37 34 -37 -20z"/>
<path d="M1586 799 c-17 -42 -13 -69 5 -36 13 22 35 22 48 0 10 -17 10 -17 11
0 0 22 -27 77 -39 77 -5 0 -16 -19 -25 -41z m30 -6 c-10 -10 -19 5 -10 18 6
11 8 11 12 0 2 -7 1 -15 -2 -18z"/>
<path d="M681 635 c-1 -23 2 -26 9 -15 8 13 11 13 22 -3 12 -15 13 -14 14 13
1 16 -3 30 -8 30 -5 0 -6 -4 -3 -10 3 -5 0 -10 -9 -10 -8 0 -17 6 -19 13 -3 6
-6 -1 -6 -18z"/>
<path d="M880 630 c0 -22 5 -30 18 -29 10 0 12 3 5 6 -15 5 -18 33 -4 33 5 0
12 -6 14 -12 4 -10 6 -10 6 -1 1 7 -8 17 -19 23 -18 10 -20 8 -20 -20z"/>
<path d="M1080 649 c0 -5 5 -7 10 -4 6 3 10 8 10 11 0 2 -4 4 -10 4 -5 0 -10
-5 -10 -11z"/>
<path d="M744 635 c-7 -17 3 -35 19 -34 9 0 9 2 0 6 -7 2 -13 11 -13 18 0 7 6
16 13 18 9 4 9 6 -1 6 -7 1 -15 -6 -18 -14z"/>
<path d="M834 625 c1 -11 9 -21 19 -23 12 -3 17 3 16 20 -1 17 -3 18 -6 6 -2
-10 -8 -18 -13 -18 -5 0 -10 8 -13 18 -3 13 -4 12 -3 -3z"/>
<path d="M964 635 c-9 -23 3 -33 38 -31 25 1 33 6 33 20 0 11 -7 21 -15 23
-11 4 -12 2 -2 -5 9 -6 6 -12 -13 -20 -33 -15 -35 -15 -35 2 0 8 6 17 13 19 9
4 9 6 -1 6 -7 1 -15 -6 -18 -14z"/>
<path d="M1150 625 c5 -13 6 -26 2 -31 -4 -4 -2 -4 5 -1 6 4 9 16 6 27 -3 11
-1 20 5 20 6 0 13 -11 15 -25 4 -23 4 -23 3 2 -1 21 -6 28 -23 29 -18 1 -20
-2 -13 -21z"/>
<path d="M1204 636 c-7 -18 3 -36 19 -36 7 0 6 4 -3 10 -13 8 -12 10 3 10 10
0 17 5 15 12 -7 19 -27 21 -34 4z"/>
<path d="M1256 642 c-3 -5 1 -9 9 -9 8 0 12 4 9 9 -3 4 -7 8 -9 8 -2 0 -6 -4
-9 -8z"/>
<path d="M1357 629 c4 -13 8 -18 11 -10 2 7 -1 18 -6 23 -8 8 -9 4 -5 -13z"/>
<path d="M1400 643 c7 -3 5 -10 -6 -17 -13 -10 -14 -15 -4 -21 9 -5 11 -4 6 3
-4 7 -3 12 3 12 5 0 12 -6 15 -12 3 -7 4 -2 3 11 -1 14 -8 26 -15 27 -7 1 -8
0 -2 -3z"/>
<path d="M941 624 c0 -11 3 -14 6 -6 3 7 2 16 -1 19 -3 4 -6 -2 -5 -13z"/>
<path d="M1088 632 c-10 -2 -18 -7 -18 -12 0 -5 7 -7 16 -3 9 3 20 0 25 -8 5
-8 9 -9 9 -4 0 19 -15 31 -32 27z"/>
<path d="M790 606 c7 -7 13 -7 20 0 6 6 3 10 -10 10 -13 0 -16 -4 -10 -10z"/>
</g>
</svg>
